<svg width="192" height="84" viewBox="0 0 192 84" fill="none" xmlns="http://www.w3.org/2000/svg">
<g clip-path="url(#clip0)">
<path d="M0.308362 80.3949C0.0851368 80.3949 0.0146446 80.3099 0.0146446 80.1018V69.3453C0.0146446 69.1226 0.0998226 69.0376 0.308362 69.0376H3.35715C6.1269 69.0376 7.21366 70.3946 7.21366 72.0096C7.23974 72.5439 7.09965 73.0731 6.81256 73.5249C6.52546 73.9767 6.10542 74.3288 5.60996 74.5331C7.10792 74.9639 7.74528 76.0278 7.74528 77.3174C7.74528 78.9324 6.64385 80.4096 3.85647 80.4096L0.308362 80.3949ZM1.42155 74.0524H3.43645C5.17525 74.0524 5.78619 73.1731 5.78619 72.0945C5.78619 71.016 5.18407 70.1865 3.46289 70.1865H1.42155V74.0524ZM1.42155 79.2225H3.91815C5.68045 79.2225 6.31194 78.314 6.31194 77.2295C6.31194 76.1451 5.70982 75.1779 3.9622 75.1779H1.42155V79.2225Z" fill="#3A73B8"/>
<path d="M12.4772 80.5651C10.4623 80.5651 9.67215 79.1201 9.67215 77.4378V72.4552C9.67215 72.2325 9.75733 72.1475 9.98056 72.1475H10.7031C10.9293 72.1475 11.0144 72.2325 11.0144 72.4552V77.3176C11.0144 78.2789 11.3581 79.4484 12.7532 79.4484C13.1719 79.4521 13.5851 79.354 13.9572 79.1625C14.3293 78.971 14.6489 78.6918 14.8886 78.3493V72.4552C14.8886 72.2325 14.9737 72.1475 15.1823 72.1475H15.9048C16.131 72.1475 16.2162 72.2325 16.2162 72.4552V80.0756C16.2162 80.2983 16.131 80.3687 15.9048 80.3687H15.2851C15.0589 80.3687 14.9738 80.2837 14.9738 80.0756V79.3868C14.6829 79.7687 14.3041 80.0751 13.8696 80.2801C13.4351 80.4852 12.9575 80.5829 12.4772 80.5651Z" fill="#3A73B8"/>
<path d="M19.4646 70.1016C19.2795 70.1057 19.0974 70.0546 18.9415 69.9549C18.7857 69.8552 18.6632 69.7114 18.5896 69.5418C18.5161 69.3723 18.4948 69.1847 18.5286 69.0031C18.5624 68.8214 18.6498 68.654 18.7794 68.5221C18.9091 68.3902 19.0752 68.2999 19.2565 68.2627C19.4379 68.2255 19.6262 68.2431 19.7975 68.3132C19.9688 68.3833 20.1152 68.5028 20.2181 68.6564C20.321 68.81 20.3757 68.9907 20.3751 69.1755C20.3817 69.2973 20.3628 69.4192 20.3196 69.5334C20.2765 69.6476 20.2099 69.7515 20.1243 69.8386C20.0386 69.9258 19.9358 69.9941 19.8222 70.0394C19.7086 70.0847 19.5868 70.1059 19.4646 70.1016ZM19.1033 80.395C18.8772 80.395 18.792 80.31 18.792 80.1019V72.4815C18.792 72.2588 18.8772 72.1738 19.1033 72.1738H19.8259C20.0491 72.1738 20.1196 72.2588 20.1196 72.4815V80.1019C20.1196 80.3247 20.0344 80.395 19.8259 80.395H19.1033Z" fill="#3A73B8"/>
<path d="M23.0098 80.3948C22.7866 80.3948 22.6984 80.3098 22.6984 80.1017V68.3781C22.6984 68.1553 22.7866 68.085 23.0098 68.085H23.7441C23.9673 68.085 24.0525 68.17 24.0525 68.3781V80.1017C24.0525 80.3245 23.9673 80.3948 23.7441 80.3948H23.0098Z" fill="#3A73B8"/>
<path d="M32.2003 80.3948C31.9771 80.3948 31.8919 80.3098 31.8919 80.1017V79.413C31.4601 80.0666 30.717 80.5853 29.4981 80.5853C27.3451 80.5853 26.0381 79.0026 26.0381 76.3062C26.0381 73.6097 27.3451 71.9948 29.4981 71.9948C30.673 71.9948 31.4102 72.4755 31.8038 73.0411V68.3781C31.8038 68.1553 31.8919 68.085 32.1151 68.085H32.8494C33.0726 68.085 33.1607 68.17 33.1607 68.3781V80.1017C33.1607 80.3245 33.0726 80.3948 32.8494 80.3948H32.2003ZM29.7566 79.4833C30.1691 79.4939 30.577 79.3947 30.9383 79.1959C31.2997 78.997 31.6014 78.7058 31.8126 78.352V74.1901C31.6016 73.8359 31.2999 73.5442 30.9386 73.3449C30.5773 73.1456 30.1693 73.0458 29.7566 73.0558C28.3614 73.0558 27.4333 74.1227 27.4333 76.2798C27.4333 78.437 28.3614 79.4804 29.7566 79.4804V79.4833Z" fill="#3A73B8"/>
<path d="M36.3739 70.1016C36.1888 70.1057 36.0067 70.0546 35.8508 69.9549C35.695 69.8552 35.5724 69.7114 35.4989 69.5418C35.4253 69.3723 35.4041 69.1847 35.4379 69.0031C35.4717 68.8214 35.559 68.654 35.6887 68.5221C35.8183 68.3902 35.9844 68.2999 36.1658 68.2627C36.3471 68.2255 36.5355 68.2431 36.7068 68.3132C36.878 68.3833 37.0245 68.5028 37.1274 68.6564C37.2303 68.81 37.2849 68.9907 37.2844 69.1755C37.291 69.2973 37.2721 69.4192 37.2289 69.5334C37.1857 69.6476 37.1192 69.7515 37.0335 69.8386C36.9479 69.9258 36.845 69.9941 36.7314 70.0394C36.6179 70.0847 36.4961 70.1059 36.3739 70.1016ZM36.0185 80.395C35.7953 80.395 35.7101 80.31 35.7101 80.1019V72.4815C35.7101 72.2588 35.7953 72.1738 36.0185 72.1738H36.744C36.9672 72.1738 37.0524 72.2588 37.0524 72.4815V80.1019C37.0524 80.3247 36.9672 80.395 36.744 80.395H36.0185Z" fill="#3A73B8"/>
<path d="M39.925 80.3948C39.7018 80.3948 39.6313 80.3098 39.6313 80.1018V72.4814C39.6313 72.2586 39.7165 72.1736 39.925 72.1736H40.5653C40.7885 72.1736 40.8737 72.2586 40.8737 72.4814V73.1701C41.1745 72.7871 41.5623 72.481 42.0051 72.2771C42.4479 72.0732 42.933 71.9775 43.4203 71.9978C45.4763 71.9978 46.2781 73.4398 46.2781 75.1251V80.1076C46.2781 80.3304 46.193 80.4007 45.9697 80.4007H45.2472C45.021 80.4007 44.9358 80.3157 44.9358 80.1076V75.2218C44.9358 74.2604 44.6098 73.091 43.1471 73.091C42.7206 73.0844 42.2988 73.181 41.9177 73.3723C41.5367 73.5637 41.2077 73.8443 40.9589 74.1901V80.0842C40.9589 80.3069 40.8737 80.3773 40.6505 80.3773L39.925 80.3948Z" fill="#3A73B8"/>
<path d="M51.4563 84.0001C49.2887 84.0001 47.8612 83.1765 47.8612 81.7316C47.8612 80.8523 48.4105 80.2661 49.2182 79.929C48.9897 79.8419 48.7942 79.6858 48.6589 79.4825C48.5235 79.2792 48.4552 79.0387 48.4634 78.7948C48.4634 78.0562 49.0302 77.5755 49.5472 77.2824C49.178 77.0099 48.8814 76.6513 48.6833 76.238C48.4851 75.8246 48.3915 75.3691 48.4105 74.9113C48.4105 73.4459 49.2916 71.9804 51.4417 71.9804C51.8276 71.9742 52.2118 72.0327 52.5783 72.1533H55.0896C55.3128 72.1533 55.401 72.2383 55.401 72.4611V72.8919C55.401 73.1147 55.2982 73.1997 55.0896 73.1997C54.6503 73.1858 54.2129 73.1338 53.7826 73.0443C54.0519 73.2663 54.2653 73.5481 54.4056 73.8673C54.5458 74.1864 54.6091 74.534 54.5903 74.882C54.5903 76.3621 53.7473 77.8129 51.474 77.8129C51.0239 77.8202 50.576 77.7508 50.1493 77.6078C50.0022 77.7246 49.8805 77.87 49.7916 78.0353C49.7027 78.2006 49.6486 78.3822 49.6324 78.5691C49.6324 78.827 49.7381 79.1172 50.7338 79.1172H52.8221C54.3201 79.1172 55.5067 79.7708 55.5067 81.2128C55.5038 82.7984 54.091 84.0001 51.4563 84.0001ZM51.474 83.0388C53.3332 83.0388 54.1615 82.2826 54.1615 81.3535C54.1615 80.7175 53.765 80.2192 52.5431 80.2192H50.1141C49.4444 80.5299 49.1683 80.993 49.1683 81.5586C49.1683 82.3324 49.6676 83.0329 51.474 83.0329V83.0388ZM51.5092 76.8545C52.6635 76.8545 53.2715 76.028 53.2715 74.8938C53.2715 73.7595 52.6518 72.9359 51.5092 72.9359C50.3666 72.9359 49.7469 73.7771 49.7469 74.8938C49.7469 76.0104 50.3549 76.8545 51.5092 76.8545Z" fill="#3A73B8"/>
<path d="M65.7604 80.3951C65.5371 80.3951 65.449 80.3101 65.449 80.102V79.3605C65.1559 79.7595 64.7683 80.0799 64.3209 80.2932C63.8735 80.5064 63.3802 80.6059 62.8849 80.5827C61.0932 80.5827 60.1298 79.5158 60.1298 78.0914C60.1298 76.667 61.1461 75.5474 63.4194 75.5474C64.0827 75.5316 64.7427 75.6431 65.3639 75.8756V75.1869C65.3639 74.1728 65.0554 73.1352 63.4194 73.1352C62.646 73.1229 61.8897 73.3638 61.2665 73.8211C61.0785 73.9588 60.9728 73.9412 60.8377 73.7537L60.5616 73.358C60.5356 73.3247 60.5168 73.2865 60.5061 73.2457C60.4954 73.205 60.4932 73.1624 60.4995 73.1208C60.5058 73.0791 60.5206 73.0391 60.5428 73.0033C60.5651 72.9675 60.5945 72.9366 60.6291 72.9125C61.4663 72.2854 62.4937 71.9636 63.5399 72.001C65.778 72.001 66.7061 73.2202 66.7061 74.9905V80.1108C66.7061 80.3336 66.621 80.4039 66.4124 80.4039L65.7604 80.3951ZM65.3639 78.2995V76.834C64.7978 76.6374 64.2008 76.5441 63.6015 76.5585C62.0507 76.5585 61.4985 77.177 61.4985 78.024C61.4985 78.7098 61.8451 79.466 63.1198 79.466C63.5621 79.474 63.9992 79.3711 64.3913 79.1668C64.7833 78.9625 65.1177 78.6633 65.3639 78.2966V78.2995Z" fill="#3A73B8"/>
<path d="M74.8509 80.3952C74.7569 80.4017 74.6633 80.3787 74.5831 80.3292C74.503 80.2798 74.4405 80.2065 74.4044 80.1197C73.3061 77.6648 72.4864 75.095 71.9607 72.4583C71.9254 72.2531 72.0106 72.1505 72.2162 72.1505H72.9593C73.0039 72.1433 73.0496 72.1458 73.0931 72.158C73.1367 72.1701 73.177 72.1916 73.2114 72.2209C73.2458 72.2502 73.2734 72.2866 73.2922 72.3276C73.3111 72.3685 73.3208 72.4132 73.3206 72.4583C73.7326 74.714 74.3661 76.9239 75.2121 79.0557C76.132 76.9398 76.808 74.7265 77.2271 72.4583C77.2269 72.4132 77.2366 72.3685 77.2554 72.3276C77.2743 72.2866 77.3019 72.2502 77.3362 72.2209C77.3706 72.1916 77.411 72.1701 77.4545 72.158C77.498 72.1458 77.5437 72.1433 77.5883 72.1505H78.1758C78.2204 72.1433 78.266 72.1458 78.3096 72.158C78.3531 72.1701 78.3934 72.1916 78.4278 72.2209C78.4622 72.2502 78.4898 72.2866 78.5086 72.3276C78.5275 72.3685 78.5372 72.4132 78.537 72.4583C78.9689 74.7251 79.6495 76.9376 80.5666 79.0557C81.4215 76.9235 82.0649 74.7128 82.4875 72.4553C82.4874 72.4102 82.497 72.3656 82.5159 72.3246C82.5348 72.2836 82.5623 72.2472 82.5967 72.2179C82.6311 72.1887 82.6715 72.1672 82.715 72.155C82.7585 72.1429 82.8042 72.1403 82.8488 72.1476H83.5713C83.7769 72.1476 83.8651 72.2502 83.8298 72.4553C83.3137 75.0924 82.4998 77.6626 81.4037 80.1167C81.3667 80.2035 81.3036 80.2767 81.2231 80.326C81.1425 80.3754 81.0486 80.3985 80.9543 80.3922H80.2846C80.1922 80.4008 80.0996 80.3784 80.0213 80.3285C79.9431 80.2786 79.8839 80.204 79.8529 80.1167C78.9905 78.2117 78.3385 76.2187 77.9085 74.1728C77.5824 75.9607 76.9451 77.8335 75.9788 80.0991C75.9525 80.1901 75.8954 80.2691 75.8171 80.3226C75.7388 80.3761 75.6444 80.4007 75.5499 80.3922L74.8509 80.3952Z" fill="#3A73B8"/>
<path d="M88.7173 80.5651C86.0151 80.5651 84.8989 78.4842 84.8989 76.2684C84.8989 74.0526 86.0533 71.9746 88.7173 71.9746C91.4224 71.9746 92.5356 74.0526 92.5356 76.2684C92.5356 78.4842 91.3695 80.5651 88.7173 80.5651ZM88.7173 79.4983C90.4384 79.4983 91.1287 77.9713 91.1287 76.2743C91.1287 74.5773 90.4384 73.0503 88.7173 73.0503C86.9961 73.0503 86.3088 74.5802 86.3088 76.2743C86.3088 77.9683 86.9961 79.4983 88.7173 79.4983Z" fill="#3A73B8"/>
<path d="M94.8236 80.395C94.6004 80.395 94.5299 80.31 94.5299 80.1019V72.4815C94.5299 72.2588 94.6151 72.1738 94.8236 72.1738H95.461C95.6842 72.1738 95.7723 72.2588 95.7723 72.4815V73.2553C96.2364 72.6545 96.906 72.0009 98.122 72.0009C98.3656 71.9968 98.6086 72.0254 98.8446 72.0859C98.8854 72.0938 98.924 72.1103 98.958 72.1342C98.9919 72.1582 99.0204 72.189 99.0415 72.2248C99.0626 72.2605 99.0758 72.3003 99.0804 72.3415C99.0849 72.3828 99.0806 72.4245 99.0678 72.464L98.9356 73.0677C98.8857 73.2905 98.7976 73.3432 98.5744 73.2905C98.3394 73.2234 98.0962 73.1889 97.8518 73.1879C97.4661 73.1841 97.085 73.2726 96.7406 73.446C96.3961 73.6193 96.0984 73.8726 95.8722 74.1844V80.0785C95.8722 80.3012 95.787 80.3716 95.5608 80.3716L94.8236 80.395Z" fill="#3A73B8"/>
<path d="M100.833 80.3948C100.61 80.3948 100.525 80.3098 100.525 80.1017V68.3781C100.525 68.1553 100.61 68.085 100.833 68.085H101.556C101.782 68.085 101.867 68.17 101.867 68.3781V80.1017C101.867 80.3245 101.782 80.3948 101.556 80.3948H100.833Z" fill="#3A73B8"/>
<path d="M110.026 80.3948C109.8 80.3948 109.715 80.3098 109.715 80.1017V79.413C109.286 80.0666 108.54 80.5853 107.321 80.5853C105.171 80.5853 103.861 79.0026 103.861 76.3062C103.861 73.6097 105.171 71.9948 107.321 71.9948C108.511 71.9948 109.233 72.4755 109.63 73.0411V68.3781C109.63 68.1553 109.715 68.085 109.938 68.085H110.661C110.887 68.085 110.972 68.17 110.972 68.3781V80.1017C110.972 80.3245 110.887 80.3948 110.661 80.3948H110.026ZM107.58 79.4833C107.992 79.4933 108.4 79.3938 108.761 79.1951C109.122 78.9963 109.424 78.7053 109.636 78.352V74.1901C109.424 73.8364 109.123 73.545 108.761 73.3457C108.4 73.1464 107.992 73.0464 107.58 73.0558C106.185 73.0558 105.256 74.1227 105.256 76.2798C105.256 78.437 106.185 79.4804 107.58 79.4804V79.4833Z" fill="#3A73B8"/>
<path d="M116.391 73.1937C116.168 73.1937 116.098 73.1088 116.098 72.886V72.4552C116.098 72.2324 116.183 72.1474 116.391 72.1474H117.493V70.2394C117.493 70.0166 117.578 69.9287 117.801 69.9287H118.527C118.75 69.9287 118.82 70.0166 118.82 70.2394V72.1474H121.17C121.396 72.1474 121.481 72.2324 121.481 72.4552V72.886C121.481 73.1088 121.396 73.1937 121.17 73.1937H118.82V78.0503C118.82 78.9618 119.096 79.46 119.904 79.46C120.251 79.4599 120.592 79.3646 120.888 79.1845C121.076 79.082 121.182 79.1142 121.267 79.3047L121.455 79.7502C121.478 79.788 121.492 79.83 121.497 79.8737C121.502 79.9173 121.498 79.9616 121.485 80.0036C121.472 80.0456 121.451 80.0845 121.422 80.1175C121.393 80.1506 121.357 80.1773 121.317 80.1957C120.832 80.4604 120.286 80.5918 119.734 80.5767C118.286 80.5767 117.478 79.9231 117.478 78.103V73.1937H116.391Z" fill="#3A73B8"/>
<path d="M123.482 80.3948C123.258 80.3948 123.173 80.3098 123.173 80.1017V68.3781C123.173 68.1553 123.258 68.085 123.482 68.085H124.195C124.421 68.085 124.507 68.17 124.507 68.3781V73.0675C124.804 72.7123 125.178 72.43 125.602 72.2425C126.026 72.055 126.487 71.9672 126.95 71.986C129.006 71.986 129.826 73.4515 129.826 75.1133V80.0959C129.826 80.3186 129.741 80.3889 129.515 80.3889H128.792C128.569 80.3889 128.498 80.3039 128.498 80.0959V75.2217C128.498 74.2604 128.169 73.091 126.707 73.091C126.281 73.0849 125.859 73.1816 125.479 73.373C125.098 73.5644 124.77 73.8447 124.521 74.1901V80.0841C124.521 80.3069 124.436 80.3772 124.21 80.3772L123.482 80.3948Z" fill="#3A73B8"/>
<path d="M137.477 80.395C137.251 80.395 137.166 80.31 137.166 80.1019V79.3604C136.873 79.7592 136.485 80.0795 136.038 80.2927C135.59 80.506 135.097 80.6055 134.602 80.5826C132.81 80.5826 131.847 79.5157 131.847 78.0913C131.847 76.6669 132.86 75.5473 135.133 75.5473C135.798 75.5316 136.459 75.643 137.081 75.8755V75.1868C137.081 74.1727 136.769 73.1351 135.133 73.1351C134.36 73.1228 133.604 73.3637 132.981 73.821C132.793 73.9587 132.687 73.9411 132.552 73.7536L132.276 73.3579C132.247 73.3255 132.226 73.2873 132.214 73.246C132.202 73.2046 132.199 73.1611 132.206 73.1186C132.213 73.0761 132.229 73.0356 132.253 72.9999C132.277 72.9643 132.309 72.9344 132.346 72.9124C133.183 72.2859 134.209 71.9642 135.254 72.0009C137.492 72.0009 138.423 73.2201 138.423 74.9904V80.1107C138.423 80.3335 138.335 80.4038 138.112 80.4038L137.477 80.395ZM137.081 78.2994V76.8339C136.515 76.6373 135.918 76.544 135.319 76.5584C133.768 76.5584 133.218 77.1769 133.218 78.0239C133.218 78.7097 133.562 79.4659 134.837 79.4659C135.279 79.4739 135.716 79.371 136.108 79.1667C136.5 78.9624 136.835 78.6632 137.081 78.2965V78.2994Z" fill="#3A73B8"/>
<path d="M140.209 73.1937C139.986 73.1937 139.915 73.1088 139.915 72.886V72.4552C139.915 72.2324 140 72.1474 140.209 72.1474H141.31V70.2394C141.31 70.0166 141.398 69.9287 141.622 69.9287H142.344C142.567 69.9287 142.655 70.0166 142.655 70.2394V72.1474H145.005C145.228 72.1474 145.299 72.2324 145.299 72.4552V72.886C145.299 73.1088 145.214 73.1937 145.005 73.1937H142.655V78.0503C142.655 78.9618 142.932 79.46 143.739 79.46C144.085 79.4603 144.425 79.3649 144.72 79.1845C144.911 79.082 145.014 79.1142 145.099 79.3047L145.287 79.7502C145.31 79.7877 145.325 79.8296 145.331 79.8732C145.337 79.9169 145.333 79.9612 145.32 80.0033C145.307 80.0454 145.286 80.0844 145.257 80.1175C145.228 80.1507 145.192 80.1774 145.152 80.1957C144.667 80.4607 144.119 80.5922 143.566 80.5767C142.121 80.5767 141.31 79.9231 141.31 78.103V73.1937H140.209Z" fill="#3A73B8"/>
<path d="M152.601 80.3952C152.507 80.4017 152.413 80.3787 152.333 80.3292C152.253 80.2798 152.19 80.2065 152.154 80.1197C151.057 77.6643 150.238 75.0947 149.711 72.4583C149.675 72.2531 149.761 72.1505 149.969 72.1505H150.706C150.751 72.1433 150.797 72.1459 150.841 72.158C150.884 72.1701 150.925 72.1916 150.959 72.2208C150.994 72.25 151.022 72.2864 151.041 72.3274C151.06 72.3684 151.07 72.413 151.071 72.4583C151.488 74.7137 152.128 76.9225 152.98 79.0528C153.897 76.9363 154.572 74.7231 154.992 72.4553C154.992 72.4102 155.001 72.3656 155.02 72.3246C155.039 72.2836 155.067 72.2472 155.101 72.2179C155.135 72.1887 155.176 72.1672 155.219 72.155C155.263 72.1429 155.308 72.1403 155.353 72.1476H155.94C155.985 72.1403 156.031 72.1429 156.074 72.155C156.118 72.1672 156.158 72.1887 156.192 72.2179C156.227 72.2472 156.254 72.2836 156.273 72.3246C156.292 72.3656 156.302 72.4102 156.302 72.4553C156.732 74.7225 157.413 76.9351 158.331 79.0528C159.178 76.921 159.813 74.7112 160.226 72.4553C160.226 72.4102 160.235 72.3656 160.254 72.3246C160.273 72.2836 160.301 72.2472 160.335 72.2179C160.369 72.1887 160.41 72.1672 160.453 72.155C160.497 72.1429 160.542 72.1403 160.587 72.1476H161.31C161.518 72.1476 161.603 72.2502 161.568 72.4553C161.052 75.0924 160.238 77.6626 159.142 80.1167C159.106 80.204 159.043 80.2777 158.962 80.3272C158.881 80.3767 158.787 80.3994 158.693 80.3922H158.023C157.93 80.4008 157.838 80.3784 157.76 80.3285C157.681 80.2786 157.622 80.204 157.591 80.1167C156.721 78.2127 156.061 76.2196 155.623 74.1728C155.294 75.9607 154.66 77.8335 153.693 80.0991C153.667 80.1901 153.61 80.2691 153.532 80.3226C153.454 80.3761 153.359 80.4007 153.265 80.3922L152.601 80.3952Z" fill="#3A73B8"/>
<path d="M166.455 80.5651C163.753 80.5651 162.637 78.4842 162.637 76.2684C162.637 74.0526 163.791 71.9746 166.455 71.9746C169.161 71.9746 170.274 74.0526 170.274 76.2684C170.274 78.4842 169.108 80.5651 166.455 80.5651ZM166.455 79.4983C168.18 79.4983 168.867 77.9713 168.867 76.2743C168.867 74.5773 168.18 73.0503 166.455 73.0503C164.731 73.0503 164.047 74.5802 164.047 76.2743C164.047 77.9683 164.728 79.4983 166.455 79.4983Z" fill="#3A73B8"/>
<path d="M172.565 80.395C172.342 80.395 172.271 80.31 172.271 80.1019V72.4815C172.271 72.2588 172.356 72.1738 172.565 72.1738H173.202C173.425 72.1738 173.513 72.2588 173.513 72.4815V73.2553C173.978 72.6545 174.647 72.0009 175.863 72.0009C176.107 71.9968 176.35 72.0254 176.586 72.0859C176.627 72.0938 176.665 72.1103 176.699 72.1342C176.733 72.1582 176.762 72.189 176.783 72.2248C176.804 72.2605 176.817 72.3003 176.822 72.3415C176.826 72.3828 176.822 72.4245 176.809 72.464L176.671 73.1C176.621 73.3227 176.533 73.3755 176.31 73.3227C176.075 73.2556 175.831 73.2211 175.587 73.2201C175.201 73.2163 174.82 73.3048 174.476 73.4782C174.131 73.6516 173.834 73.9048 173.607 74.2166V80.1107C173.607 80.3335 173.522 80.4038 173.299 80.4038L172.565 80.395Z" fill="#3A73B8"/>
<path d="M183.82 80.3948C183.725 80.4053 183.63 80.3838 183.549 80.3339C183.468 80.2839 183.406 80.2084 183.374 80.1193C182.639 78.762 181.711 77.5181 180.619 76.4264C180.29 76.6843 179.946 76.9246 179.602 77.1474V80.0783C179.602 80.301 179.517 80.3714 179.309 80.3714H178.586C178.36 80.3714 178.275 80.2864 178.275 80.0783V68.3781C178.275 68.1553 178.36 68.085 178.586 68.085H179.309C179.532 68.085 179.602 68.17 179.602 68.3781V75.8695C180.895 74.9017 182.022 73.7307 182.939 72.4022C182.99 72.3172 183.064 72.2483 183.152 72.2032C183.24 72.1581 183.339 72.1387 183.438 72.1472H184.281C184.472 72.1472 184.525 72.2498 184.419 72.4022C183.598 73.6229 182.623 74.7331 181.517 75.7053C182.86 76.98 183.978 78.4724 184.822 80.1193C184.907 80.2922 184.857 80.3948 184.648 80.3948H183.82Z" fill="#3A73B8"/>
<path d="M188.848 80.5651C187.826 80.6076 186.821 80.2913 186.008 79.6712C185.975 79.6476 185.947 79.6173 185.926 79.5822C185.904 79.5471 185.891 79.508 185.886 79.4674C185.881 79.4269 185.885 79.3857 185.897 79.3466C185.909 79.3075 185.929 79.2713 185.955 79.2403L186.281 78.8124C186.3 78.7744 186.328 78.7414 186.363 78.7162C186.397 78.691 186.437 78.6742 186.479 78.6674C186.521 78.6605 186.564 78.6637 186.605 78.6767C186.646 78.6897 186.683 78.7121 186.713 78.7421C187.324 79.2264 188.086 79.4816 188.866 79.4631C189.847 79.4631 190.655 79.0528 190.655 78.2292C190.655 77.3177 189.812 77.0568 188.778 76.8018C187.603 76.5087 185.973 76.2362 185.973 74.3809C185.973 72.9008 187.265 71.9746 189.107 71.9746C190.006 71.9366 190.895 72.1761 191.653 72.6604C191.69 72.6812 191.721 72.7093 191.745 72.743C191.77 72.7767 191.787 72.8153 191.795 72.856C191.803 72.8968 191.803 72.9388 191.794 72.9794C191.784 73.02 191.767 73.0581 191.741 73.0913L191.43 73.5368C191.31 73.7273 191.207 73.7449 191.016 73.6247C190.445 73.2492 189.773 73.0569 189.089 73.0737C187.914 73.0737 187.327 73.6247 187.327 74.3281C187.327 75.2719 188.188 75.4272 189.186 75.6676C190.496 75.9782 192.009 76.4061 192.009 78.1412C191.997 79.6712 190.62 80.5651 188.848 80.5651Z" fill="#3A73B8"/>
<path d="M102.607 21.7327C102.607 18.3944 104.869 15.1499 106.108 15.7654C107.515 16.4688 105.054 19.6166 102.607 21.7327ZM87.1869 22.9491C87.1869 20.2614 89.8304 15.1558 91.4693 15.6951C93.3873 16.3369 89.8803 21.4836 87.1869 22.9491ZM84.4965 42.1583C83.2746 42.214 82.4581 41.4314 82.4581 40.1301C82.4581 36.6306 87.3221 33.2923 90.9935 31.4986C90.3415 36.3873 88.6879 41.9736 84.4965 42.1642V42.1583ZM106.928 30.7629C104.158 30.7629 102.034 32.7969 102.034 35.2384C102.034 37.2754 103.256 38.902 104.889 38.902C105.477 38.902 106.029 38.5767 106.029 37.844C106.029 36.7859 104.625 36.528 104.734 34.9453C104.801 33.899 105.788 33.2043 106.766 33.2043C108.722 33.2043 109.639 35.0948 109.639 37.0497C109.556 40.0627 107.336 42.1583 104.728 42.1583C101.3 42.1583 99.1001 38.9021 99.1001 35.3996C99.1001 30.1914 102.525 28.1573 104.319 27.6679C104.337 27.6679 109.019 28.5002 108.863 26.4457C108.802 25.5429 107.45 25.1971 106.475 25.1561C105.737 25.1492 105.002 25.2661 104.302 25.5019C103.726 25.1726 103.295 24.639 103.095 24.0071C106.44 21.4807 108.805 19.0422 108.805 16.2725C108.805 14.807 107.826 13.5057 105.95 13.5057C102.607 13.5057 100.075 17.7379 100.075 21.5627C100.045 22.1916 100.1 22.8217 100.24 23.4356C98.1191 24.9831 96.5418 25.9415 93.6869 27.6503C93.7223 26.8203 93.8274 25.9948 94.0012 25.1824C94.9793 24.1244 96.3245 22.5446 96.3245 21.3195C96.3245 20.7509 95.9985 20.2614 95.3435 20.2614C93.7133 20.2614 92.4915 22.7029 92.1655 24.4116C91.4312 25.3085 89.9626 26.4486 88.7378 26.4486C87.7597 26.4486 87.4337 25.5517 87.3514 25.2264C90.4531 24.1683 94.2861 19.9361 94.2861 16.1113C94.2861 15.2965 93.9601 13.5057 91.5134 13.5057C87.8419 13.5057 84.7432 18.9601 84.7432 23.1923C83.4362 23.1923 82.9486 21.809 82.9486 20.7509C82.9486 19.6928 83.3569 18.6318 83.3569 18.3094C83.3672 18.2174 83.3579 18.1242 83.3298 18.0359C83.3016 17.9477 83.2551 17.8663 83.1933 17.7972C83.1315 17.7281 83.0558 17.6727 82.9711 17.6347C82.8865 17.5967 82.7947 17.577 82.7019 17.5767C81.48 17.5767 80.7428 19.2034 80.7428 21.0762C80.828 23.6789 82.5403 25.3085 84.8225 25.4726C85.1486 27.0201 86.5378 28.4856 88.2502 28.4856C89.3105 28.4856 90.5999 28.1602 91.5134 27.3454C91.4312 27.917 91.3489 28.4035 91.2667 28.893C87.6775 30.7658 85.0692 32.0672 82.7019 34.1686C80.828 35.8803 79.7647 38.1605 79.7647 39.9513C79.7647 42.3928 81.3155 44.6701 84.4965 44.6701C88.2502 44.6701 91.1051 41.66 92.4915 37.5069C93.1435 35.5549 93.4049 32.712 93.5665 30.1064C96.1545 28.6812 98.6546 27.1025 101.053 25.3788C101.26 25.7545 101.537 26.0869 101.87 26.3577C100.157 27.2546 96.0807 29.7752 96.0807 35.7161C96.0807 39.9513 98.9356 44.6701 104.563 44.6701C109.213 44.6701 112.394 40.8599 112.394 37.1845C112.394 33.8609 110.517 30.7688 106.928 30.7688V30.7629ZM120.964 37.759C120.95 37.7854 120.903 37.8235 120.812 37.7912C120.721 37.759 120.721 37.7297 120.724 37.6857C121.349 35.6544 121.679 33.5442 121.705 31.4194C121.705 27.8378 120.236 25.6397 118.359 25.6397C117.217 25.6397 116.403 26.4544 116.403 27.6737C116.403 29.8719 119.093 30.036 119.093 34.8398C119.093 36.7918 118.688 38.65 118.033 40.7016C115.017 50.8748 105.389 55.5936 96.0043 55.5936C91.6808 55.5936 88.6085 54.7143 87.6921 54.2981C87.6687 54.2793 87.6522 54.2533 87.6453 54.2241C87.6384 54.1949 87.6414 54.1642 87.654 54.1369C87.6745 54.0813 87.7391 54.0373 87.7744 54.0549C89.8009 54.7042 91.9168 55.0325 94.0452 55.0279C97.6345 55.0279 99.758 53.5625 99.758 51.7688C99.7604 51.5007 99.7092 51.2349 99.6074 50.9869C99.5056 50.7389 99.3553 50.5136 99.1652 50.3242C98.9752 50.1348 98.7491 49.9851 98.5004 49.8839C98.2517 49.7827 97.9853 49.732 97.7167 49.7347C95.5138 49.7347 95.3493 52.5015 90.6205 52.5015C88.5821 52.5015 86.8022 52.097 84.6668 51.4464C74.5571 48.3484 69.7255 38.8258 69.7343 29.3971C69.7378 26.5808 70.1817 23.7823 71.0501 21.1026C71.0687 21.0843 71.0926 21.0723 71.1184 21.0681C71.1441 21.0639 71.1706 21.0677 71.194 21.0792C71.2675 21.1026 71.288 21.1642 71.2792 21.1847C70.6455 23.2118 70.3168 25.3216 70.3041 27.4451C70.3041 31.0267 71.7727 33.1428 73.6466 33.1428C73.9046 33.1463 74.1607 33.0983 74.3998 33.0015C74.6389 32.9047 74.8561 32.7611 75.0387 32.5791C75.2213 32.3972 75.3656 32.1806 75.4629 31.9422C75.5603 31.7038 75.6088 31.4483 75.6057 31.1908C75.6057 28.9926 72.9152 28.7464 72.9152 24.0277C72.9152 21.9907 73.3206 20.1999 73.9756 18.0838C77.0743 7.99262 86.6054 3.26212 96.0043 3.18885C100.363 3.15661 104.181 4.45793 104.325 4.57224C104.344 4.59149 104.356 4.61577 104.36 4.64191C104.364 4.66804 104.36 4.69482 104.349 4.71878C104.319 4.79499 104.27 4.80379 104.243 4.79792C102.226 4.08554 100.1 3.73333 97.9605 3.75744C94.4535 3.75744 92.2536 5.22291 92.2536 7.09576C92.2525 7.35939 92.3051 7.62049 92.4082 7.86321C92.5114 8.10593 92.6628 8.32522 92.8535 8.50776C93.0441 8.69031 93.2699 8.83229 93.5172 8.92511C93.7644 9.01794 94.028 9.05966 94.292 9.04775C96.4948 9.04775 96.6593 6.36303 101.388 6.36303C103.427 6.36303 105.206 6.77042 107.342 7.42109C117.54 10.5132 122.18 20.1207 122.269 29.4029C122.302 32.2412 121.861 35.0653 120.964 37.759ZM95.9985 1.38341C90.4496 1.38341 85.0253 3.02515 80.4114 6.10108C75.7974 9.177 72.2011 13.549 70.0769 18.6643C67.9528 23.7796 67.3963 29.4085 68.4777 34.8394C69.5592 40.2703 72.2301 45.2592 76.1527 49.1756C80.0753 53.0919 85.0736 55.7597 90.5155 56.8417C95.9574 57.9237 101.599 57.3713 106.726 55.2544C111.853 53.1374 116.236 49.551 119.321 44.9485C122.406 40.346 124.054 34.9341 124.057 29.3971C124.059 25.7191 123.334 22.0768 121.925 18.6783C120.515 15.2798 118.449 12.1916 115.843 9.59017C113.238 6.98874 110.144 4.92503 106.739 3.51689C103.334 2.10876 99.6843 1.38379 95.9985 1.38341ZM95.9985 58.7678C90.1736 58.7678 84.4795 57.044 79.6365 53.8144C74.7934 50.5849 71.019 45.9947 68.7906 40.6243C66.5622 35.254 65.9799 29.3448 67.1173 23.6442C68.2548 17.9436 71.0609 12.7077 75.1807 8.59867C79.3006 4.48964 84.5491 1.69212 90.2624 0.559931C95.9758 -0.572254 101.897 0.0117589 107.278 2.23811C112.659 4.46447 117.257 8.23315 120.491 13.0675C123.725 17.9018 125.449 23.5846 125.447 29.3971C125.447 33.2553 124.685 37.0758 123.205 40.6402C121.725 44.2045 119.555 47.443 116.821 50.1705C114.086 52.898 110.839 55.0611 107.267 56.5363C103.694 58.0114 99.8649 58.7697 95.9985 58.7678Z" fill="#3A73B8"/>
</g>
<defs>
<clipPath id="clip0">
<rect width="192" height="84" fill="white"/>
</clipPath>
</defs>
</svg>
