<svg width="229" height="75" viewBox="0 0 229 75" fill="none" xmlns="http://www.w3.org/2000/svg">
<g clip-path="url(#clip0)">
<path d="M28.2022 0.00732422H30.2386C37.3084 0.161539 44.263 3.0145 49.2579 8.06503C47.4136 9.95415 45.5309 11.7662 43.725 13.6553C40.9202 11.1108 37.539 9.14453 33.8504 8.45056C28.3943 7.29395 22.5156 8.3349 17.9433 11.4577C12.9484 14.7348 9.56715 20.2865 8.83712 26.2238C8.03024 32.0839 9.68242 38.2525 13.4863 42.8018C17.1364 47.2355 22.7078 50.0113 28.4712 50.2041C33.8504 50.5125 39.4601 48.8547 43.3792 45.0765C46.4531 42.4163 47.8747 38.3681 48.3358 34.4357C41.9576 34.4357 35.5794 34.4742 29.2012 34.4357V26.4936H56.0588C57.442 35.014 55.444 44.6138 48.989 50.7053C44.6856 55.0233 38.7301 57.5678 32.6593 58.069C26.7806 58.6473 20.7098 57.5293 15.4843 54.6763C9.22135 51.3222 4.22638 45.6548 1.76732 38.985C-0.538053 32.855 -0.576476 25.9153 1.5752 19.7468C3.53477 14.1179 7.3002 9.14453 12.1415 5.6747C16.7906 2.24343 22.4388 0.354307 28.2022 0.00732422Z" fill="#3780FF"/>
<path d="M182.278 2.01123H190.5V57.0658C187.772 57.0658 185.006 57.1043 182.278 57.0272C182.316 38.7142 182.278 20.3627 182.278 2.01123Z" fill="#38B137"/>
<path d="M74.3482 21.0954C79.42 20.1316 84.9144 21.2111 89.1025 24.2568C92.9064 26.9556 95.5576 31.1965 96.3645 35.8229C97.4019 41.1818 96.0955 47.042 92.6374 51.2829C88.9104 56.025 82.8012 58.5695 76.8457 58.1839C71.3896 57.8755 66.0873 55.1382 62.8597 50.666C59.2096 45.7311 58.3258 38.9457 60.3238 33.1627C62.3218 26.9556 67.97 22.2135 74.3482 21.0954ZM75.5009 28.4206C73.426 28.9603 71.5049 30.1555 70.1217 31.8519C66.3946 36.3241 66.6252 43.6107 70.7364 47.7745C73.0802 50.1648 76.6151 51.2829 79.8811 50.6275C82.9165 50.0877 85.5676 48.0444 87.0277 45.3456C89.5636 40.7577 88.8336 34.435 84.9529 30.8495C82.4554 28.5363 78.8052 27.5724 75.5009 28.4206Z" fill="#FA3913"/>
<path d="M115.076 21.0953C120.878 19.9773 127.218 21.5965 131.56 25.6832C138.63 32.0445 139.398 43.9576 133.366 51.2828C129.715 55.9092 123.798 58.4538 117.958 58.1839C112.387 58.0297 106.892 55.2538 103.588 50.6659C99.861 45.6154 99.0541 38.6758 101.167 32.7771C103.281 26.7627 108.813 22.1748 115.076 21.0953ZM116.229 28.4205C114.154 28.9603 112.233 30.1554 110.85 31.8132C107.161 36.2083 107.315 43.3793 111.273 47.5816C113.616 50.0876 117.266 51.3213 120.648 50.6274C123.645 50.0491 126.334 48.0443 127.794 45.3455C130.292 40.7191 129.562 34.3963 125.643 30.8108C123.145 28.4976 119.495 27.5723 116.229 28.4205Z" fill="#FCBD06"/>
<path d="M149.618 23.3317C154.037 20.5558 159.916 19.7847 164.68 22.175C166.179 22.8305 167.408 23.9485 168.599 25.0666C168.638 24.0256 168.599 22.9461 168.638 21.8666C171.212 21.9052 173.786 21.8666 176.399 21.9052V55.9094C176.361 61.0371 175.054 66.4731 171.366 70.2128C167.331 74.3381 161.145 75.6103 155.574 74.7621C149.618 73.8754 144.431 69.5189 142.126 64.0057C144.431 62.8876 146.852 62.0009 149.234 60.96C150.579 64.1214 153.307 66.8201 156.727 67.437C160.146 68.0538 164.104 67.2056 166.332 64.3527C168.715 61.4226 168.715 57.413 168.599 53.8275C166.832 55.5625 164.795 57.1046 162.336 57.6829C156.996 59.1865 151.117 57.3359 147.006 53.7119C142.856 50.0878 140.397 44.4976 140.628 38.9459C140.743 32.6616 144.278 26.6087 149.618 23.3317ZM157.572 28.2665C155.228 28.6521 153.038 29.9629 151.54 31.7749C147.928 36.0929 147.928 42.994 151.578 47.2349C153.653 49.7409 156.996 51.1288 160.223 50.7818C163.259 50.4734 166.063 48.5457 167.562 45.8855C170.098 41.3747 169.675 35.2447 166.256 31.3122C164.142 28.8834 160.761 27.6882 157.572 28.2665Z" fill="#3780FF"/>
<path d="M200.375 25.298C204.986 20.98 212.094 19.515 218.011 21.7897C223.621 23.9101 227.194 29.2691 229 34.7822C220.662 38.252 212.363 41.6833 204.025 45.1531C205.178 47.3507 206.945 49.3555 209.328 50.1651C212.67 51.3603 216.666 50.9362 219.471 48.7001C220.585 47.8519 221.469 46.7338 222.314 45.6543C224.428 47.0808 226.541 48.4687 228.654 49.8952C225.657 54.406 220.624 57.5674 215.206 58.0686C209.212 58.8011 202.834 56.4879 198.953 51.7844C192.575 44.3821 193.19 31.9678 200.375 25.298ZM204.486 32.4304C203.18 34.3196 202.642 36.6328 202.68 38.9075C208.252 36.5942 213.823 34.281 219.394 31.9293C218.472 29.7703 216.244 28.4594 213.977 28.1124C210.327 27.457 206.523 29.4233 204.486 32.4304Z" fill="#FA3913"/>
</g>
<defs>
<clipPath id="clip0">
<rect width="229" height="75" fill="white"/>
</clipPath>
</defs>
</svg>
