<svg width="138" height="91" viewBox="0 0 138 91" fill="none" xmlns="http://www.w3.org/2000/svg">
                <g clipPath="url(#clip0)">
                  <path d="M96.9811 2.76018C101.993 0.299344 104.477 0.622276 104.533 3.11659C104.6 6.35682 104.121 10.6657 103.776 13.7835C101.915 30.7292 98.8076 44.5762 98.5737 61.9751C106.761 40.7882 113.623 26.0628 122.467 7.92672C125.274 2.14779 127.068 3.22794 129.373 2.20347C138.351 -1.79378 138.686 0.655763 137.516 5.54395C133.161 23.6488 122.01 80.6533 120.306 89.4309C119.816 91.9705 117.054 90.8939 116.34 89.9008C113.144 85.4803 109.535 85.4112 109.935 82.4718C111.941 67.8374 119.159 31.1201 121.041 22.4685C111.45 42.1232 101.503 66.694 96.3904 80.6256C95.3098 83.584 93.3382 83.367 92.1131 81.2024C90.3864 78.1617 87.0336 76.6093 86.4765 73.0162C84.7278 61.5922 88.4817 39.8173 89.005 26.0416C83.7811 41.09 75.0146 70.306 71.1715 83.506C69.5899 88.9676 64.3098 88.0767 65.7133 82.7534C71.55 60.601 84.1263 21.4218 89.5621 7.33653C90.8436 4.01824 94.1962 4.12958 96.9811 2.76018Z" fill="#CC071E" />
                  <path d="M65.1455 0.0432871C63.4525 -0.368604 58.5401 2.28144 55.5213 2.80467C54.5634 2.97169 53.6499 3.98487 53.3269 4.70879C48.4924 15.81 44.1594 26.3922 40.4055 36.0325C35.6046 36.852 29.9907 37.931 23.7082 39.3417C28.2083 27.8029 32.7531 16.4222 37.1864 5.4769C39.3696 0.0876686 33.622 -0.424462 31.3941 5.03153C28.4978 12.1244 23.0731 25.4135 17.0691 40.9028C12.658 41.9839 7.97973 43.2198 3.08959 44.6318C-0.463903 45.6573 -0.608528 46.6037 0.928696 48.7338C1.7752 49.9198 3.52406 49.8003 4.32597 50.6455C6.39793 52.8358 7.65666 55.4556 11.3657 55.8521C8.05743 64.6984 4.74915 73.8212 1.75279 82.6052C-0.129692 88.119 5.22814 89.2468 7.289 83.4122C10.6084 74.0069 14.1061 64.4878 17.704 54.9968C20.7003 54.3007 27.9518 52.7396 34.6463 51.2877C29.333 65.845 25.8352 76.9006 24.5099 82.2821C24.2649 83.3174 24.6769 83.8921 24.8997 84.3141C26.693 86.9228 28.3974 87.0297 30.7032 90.2553C31.3271 91.135 33.4213 91.6094 34.134 89.4436C39.0575 74.5778 44.1258 60.6296 48.8486 48.1253C50.809 47.6967 54.3401 46.8448 56.5011 43.6214C60.3439 37.9002 61.4467 39.0606 62.3715 37.3213C63.5299 35.1379 62.7612 33.088 58.6622 33.5945C58.6622 33.5945 57.1138 33.7046 54.2511 34.0309C58.7958 22.334 62.7724 12.4131 65.6352 4.85283C66.6158 2.29253 66.7384 0.421892 65.1455 0.0432871Z" fill="#CC071E" />
                  <path d="M58.44 75.9076C59.4982 78.581 62.8065 77.7715 61.5478 74.5449C60.2666 71.2577 57.081 61.3624 56.2454 58.1745C55.1093 53.8789 60.0327 55.0536 57.5376 57.8619C55.399 60.2768 53.973 61.2444 50.0188 65.8364C46.1981 70.269 47.234 76.0213 51.3221 77.2918C55.9336 78.7259 59.9995 73.6463 62.5168 69.9196C64.9562 66.3109 62.5946 64.1942 60.133 66.3277C58.5512 67.6994 56.7244 69.806 54.8752 70.9418C53.3715 71.8559 52.1907 70.8738 54.1958 68.1148C56.5239 64.9203 59.1304 62.2436 61.0685 59.2249C65.023 53.073 57.2033 49.5268 53.8393 53.5228C52.0347 55.653 52.4915 57.7441 52.9816 59.5389C53.7726 62.4137 56.7133 71.591 58.44 75.9076Z" fill="#CC071E" />
                </g>
                <defs>
                  <clipPath id="clip0">
                    <rect width="138" height="91" fill="white" />
                  </clipPath>
                </defs>
              </svg>