<svg width="284" height="61" viewBox="0 0 284 61" fill="none" xmlns="http://www.w3.org/2000/svg">
<g clip-path="url(#clip0)">
<path d="M100.246 35.1341L98.5537 39.9574H98.4126C98.1305 38.8698 97.6133 37.2147 96.7669 35.2287L87.6921 12.2946H78.8053V48.8473H84.6828V26.2915C84.6828 24.8729 84.6828 23.2651 84.6358 21.2791C84.5888 20.286 84.4947 19.5294 84.4477 18.962H84.5888C84.8709 20.3806 85.2 21.4209 85.4351 22.0829L96.3437 48.7527H100.481L111.296 21.8465C111.531 21.2318 111.766 20.0023 112.001 18.962H112.142C112.001 21.6574 111.907 24.069 111.86 25.5349V48.7054H118.114V12.2H109.556L100.246 35.1341ZM124.038 22.5085H130.151V48.7054H124.038V22.5085ZM127.142 11.4434C126.107 11.4434 125.261 11.8217 124.556 12.4837C123.85 13.1457 123.474 13.9969 123.474 15.0372C123.474 16.0302 123.85 16.8814 124.556 17.5434C125.261 18.2054 126.107 18.5364 127.142 18.5364C128.176 18.5364 129.07 18.1581 129.728 17.5434C130.433 16.8814 130.809 16.0302 130.809 15.0372C130.809 14.0442 130.433 13.193 129.728 12.4837C129.117 11.8217 128.223 11.4434 127.142 11.4434ZM151.827 22.2721C150.699 22.0356 149.523 21.8938 148.395 21.8938C145.621 21.8938 143.081 22.5085 140.966 23.738C138.85 24.9674 137.157 26.6698 136.076 28.7977C134.947 30.9729 134.383 33.4791 134.383 36.3636C134.383 38.8698 134.947 41.0922 136.029 43.1256C137.11 45.1116 138.615 46.7194 140.636 47.807C142.564 48.8946 144.821 49.462 147.36 49.462C150.276 49.462 152.768 48.8473 154.742 47.7124L154.789 47.6651V41.9907L154.554 42.1798C153.661 42.8418 152.627 43.4093 151.592 43.7403C150.511 44.1186 149.523 44.3077 148.677 44.3077C146.232 44.3077 144.304 43.5984 142.94 42.038C141.53 40.5248 140.825 38.4442 140.825 35.8434C140.825 33.1481 141.53 31.0201 142.987 29.4597C144.445 27.8992 146.373 27.0953 148.724 27.0953C150.699 27.0953 152.721 27.7574 154.554 29.0814L154.789 29.2705V23.2651L154.742 23.2178C153.943 22.8868 153.05 22.5085 151.827 22.2721ZM171.999 22.0829C170.494 22.0829 169.083 22.5558 167.861 23.5488C166.827 24.4 166.121 25.6294 165.51 27.0953H165.463V22.5085H159.35V48.7054H165.463V35.3232C165.463 33.0535 165.933 31.162 166.968 29.7907C168.002 28.3721 169.319 27.6628 170.917 27.6628C171.481 27.6628 172.046 27.8046 172.751 27.8992C173.409 28.0884 173.88 28.2775 174.209 28.5139L174.444 28.7031V22.5558L174.303 22.5085C173.88 22.2248 173.033 22.0829 171.999 22.0829ZM188.644 21.9411C184.365 21.9411 180.932 23.2178 178.534 25.724C176.089 28.2302 174.914 31.6822 174.914 36.0325C174.914 40.0992 176.136 43.4093 178.487 45.8209C180.838 48.1853 184.036 49.4147 188.032 49.4147C192.217 49.4147 195.556 48.138 197.954 45.5845C200.399 43.031 201.574 39.6263 201.574 35.4178C201.574 31.2566 200.446 27.9465 198.142 25.5349C195.932 23.1232 192.687 21.9411 188.644 21.9411ZM193.534 42.0853C192.405 43.5512 190.619 44.2605 188.409 44.2605C186.199 44.2605 184.412 43.5512 183.142 41.9907C181.873 40.5248 181.262 38.3969 181.262 35.7015C181.262 32.9116 181.92 30.7837 183.142 29.2705C184.412 27.7574 186.152 27.0008 188.362 27.0008C190.525 27.0008 192.217 27.7101 193.44 29.176C194.662 30.6418 195.321 32.7698 195.321 35.5597C195.227 38.3969 194.709 40.6194 193.534 42.0853ZM215.21 33.3845C213.282 32.5806 212.06 31.9659 211.495 31.4457C211.025 30.9729 210.79 30.3108 210.79 29.4597C210.79 28.7504 211.072 28.0411 211.778 27.5682C212.483 27.0953 213.282 26.8589 214.458 26.8589C215.492 26.8589 216.574 27.048 217.608 27.3318C218.642 27.6155 219.583 28.0411 220.335 28.6085L220.57 28.7977V23.0287L220.429 22.9814C219.724 22.6977 218.783 22.4139 217.655 22.1775C216.527 21.9884 215.492 21.8938 214.646 21.8938C211.73 21.8938 209.332 22.6031 207.452 24.1636C205.571 25.6294 204.678 27.6155 204.678 29.9325C204.678 31.162 204.866 32.2496 205.289 33.148C205.712 34.0465 206.323 34.8977 207.17 35.607C208.016 36.269 209.238 37.0256 210.931 37.7349C212.342 38.3496 213.423 38.8225 214.081 39.2008C214.74 39.5791 215.163 40.0046 215.492 40.3356C215.727 40.7139 215.868 41.1868 215.868 41.8015C215.868 43.5512 214.552 44.4023 211.872 44.4023C210.837 44.4023 209.756 44.2132 208.486 43.7876C207.217 43.362 206.041 42.7473 205.054 42.038L204.819 41.8488V47.8542L204.96 47.9015C205.853 48.3271 206.934 48.6108 208.251 48.9418C209.568 49.1783 210.743 49.3674 211.778 49.3674C214.928 49.3674 217.514 48.6581 219.348 47.0977C221.229 45.5845 222.216 43.6457 222.216 41.1395C222.216 39.3899 221.746 37.8294 220.711 36.6473C219.348 35.5124 217.655 34.3302 215.21 33.3845ZM238.344 21.9411C234.065 21.9411 230.632 23.2178 228.234 25.724C225.836 28.2302 224.614 31.6822 224.614 36.0325C224.614 40.0992 225.836 43.4093 228.187 45.8209C230.538 48.1853 233.736 49.4147 237.732 49.4147C241.917 49.4147 245.256 48.138 247.654 45.5845C250.099 43.031 251.274 39.6263 251.274 35.4178C251.274 31.2566 250.146 27.9465 247.842 25.5349C245.632 23.1232 242.387 21.9411 238.344 21.9411ZM243.187 42.0853C242.058 43.5512 240.272 44.2605 238.062 44.2605C235.805 44.2605 234.065 43.5512 232.795 41.9907C231.526 40.5248 230.915 38.3969 230.915 35.7015C230.915 32.9116 231.573 30.7837 232.795 29.2705C234.065 27.7574 235.805 27.0008 238.015 27.0008C240.131 27.0008 241.87 27.7101 243.093 29.176C244.315 30.6418 244.974 32.7698 244.974 35.5597C244.974 38.3969 244.362 40.6194 243.187 42.0853ZM283.953 27.5682V22.5085H277.793V14.7535L277.605 14.8008L271.775 16.5504L271.634 16.5977V22.5085H262.418V19.1984C262.418 17.6853 262.794 16.5031 263.452 15.7465C264.111 14.9899 265.098 14.6116 266.321 14.6116C267.167 14.6116 268.06 14.8008 269.048 15.2263L269.283 15.3682V10.0248L269.142 9.97751C268.295 9.69379 267.167 9.50464 265.709 9.50464C263.876 9.50464 262.277 9.93022 260.819 10.6395C259.362 11.4434 258.28 12.531 257.481 13.9969C256.681 15.4155 256.258 17.0232 256.258 18.8674V22.5085H251.98V27.5209H256.258V48.7054H262.418V27.5682H271.634V41.045C271.634 46.5775 274.22 49.3674 279.392 49.3674C280.238 49.3674 281.132 49.2256 281.978 49.0837C282.872 48.8946 283.53 48.6581 283.906 48.469L283.953 48.4217V43.362L283.718 43.5511C283.342 43.7876 283.013 43.9767 282.448 44.1186C281.978 44.2605 281.555 44.3077 281.226 44.3077C280.003 44.3077 279.157 44.024 278.546 43.3147C277.982 42.6527 277.699 41.5651 277.699 39.9574V27.5682H283.953Z" fill="#737373"/>
<path d="M0 0H28.8232V28.9868H0V0Z" fill="#F25022"/>
<path d="M31.8325 0H60.6556V28.9868H31.8325V0Z" fill="#7FBA00"/>
<path d="M0 32.0132H28.8232V61H0V32.0132Z" fill="#00A4EF"/>
<path d="M31.8325 32.0132H60.6556V61H31.8325V32.0132Z" fill="#FFB900"/>
</g>
<defs>
<clipPath id="clip0">
<rect width="284" height="61" fill="white"/>
</clipPath>
</defs>
</svg>
