<svg width="215" height="215" viewBox="0 0 215 215" fill="none" xmlns="http://www.w3.org/2000/svg">
<path d="M180.673 137.442C193.858 137.442 204.547 126.753 204.547 113.567C204.547 100.382 193.858 89.6932 180.673 89.6932C167.487 89.6932 156.798 100.382 156.798 113.567C156.798 126.753 167.487 137.442 180.673 137.442Z" fill="#888888"/>
<path d="M180.673 127.648C188.455 127.648 194.753 121.35 194.753 113.568C194.753 105.785 188.455 99.4871 180.673 99.4871C172.89 99.4871 166.592 105.785 166.592 113.568C166.592 121.35 172.89 127.648 180.673 127.648Z" fill="white"/>
<path d="M130.055 137.442C143.241 137.442 153.929 126.753 153.929 113.567C153.929 100.382 143.241 89.6932 130.055 89.6932C116.87 89.6932 106.181 100.382 106.181 113.567C106.181 126.753 116.87 137.442 130.055 137.442Z" fill="#888888"/>
<path d="M130.055 127.648C137.837 127.648 144.136 121.35 144.136 113.568C144.136 105.785 137.837 99.4871 130.055 99.4871C122.273 99.4871 115.975 105.785 115.975 113.568C115.975 121.35 122.273 127.648 130.055 127.648Z" fill="white"/>
<path d="M103.972 113.369C103.972 113.435 103.972 113.501 103.972 113.567C103.972 126.758 93.2876 137.442 80.0974 137.442C66.9072 137.442 56.2231 126.758 56.2231 113.567C56.2231 100.377 66.9072 89.6931 80.0974 89.6931C85.5054 89.6931 90.4847 91.5068 94.5077 94.5075V79.2729C94.5077 76.6348 96.6181 74.5244 99.2561 74.5244C101.861 74.5244 104.005 76.6678 104.005 79.2729V113.139C104.005 113.205 104.005 113.304 103.972 113.369Z" fill="#888888"/>
<path d="M80.0974 127.648C87.8738 127.648 94.1779 121.344 94.1779 113.568C94.1779 105.791 87.8738 99.4871 80.0974 99.4871C72.3209 99.4871 66.0168 105.791 66.0168 113.568C66.0168 121.344 72.3209 127.648 80.0974 127.648Z" fill="white"/>
<path d="M30.6012 137.376C43.7865 137.376 54.4754 126.687 54.4754 113.502C54.4754 100.316 43.7865 89.6273 30.6012 89.6273C17.4158 89.6273 6.72693 100.316 6.72693 113.502C6.72693 126.687 17.4158 137.376 30.6012 137.376Z" fill="#9C5789"/>
<path d="M30.3704 127.681C38.1468 127.681 44.4509 121.377 44.4509 113.6C44.4509 105.824 38.1468 99.5199 30.3704 99.5199C22.5939 99.5199 16.2899 105.824 16.2899 113.6C16.2899 121.377 22.5939 127.681 30.3704 127.681Z" fill="white"/>
</svg>
