<svg width="458" height="618" viewBox="0 0 458 618" fill="none" xmlns="http://www.w3.org/2000/svg">
<path fill-rule="evenodd" clip-rule="evenodd" d="M151.937 256.685H47.8947V305.442C47.8947 310.965 43.4175 315.442 37.8947 315.442C32.3718 315.442 27.8947 310.965 27.8947 305.442L27.8947 256.685H0V561.746H33.2362L33.2362 515.957C33.2362 510.434 37.7133 505.957 43.2362 505.957C48.759 505.957 53.2362 510.434 53.2362 515.957L53.2362 561.746H151.937V551.567C151.937 546.044 156.414 541.567 161.937 541.567C167.46 541.567 171.937 546.044 171.937 551.567V561.746H196.45V256.685H171.937V380.817C171.937 386.34 167.46 390.817 161.937 390.817C156.414 390.817 151.937 386.34 151.937 380.817V256.685ZM65.1958 327.312C70.7186 327.312 75.1958 331.789 75.1958 337.312V399.216C75.1958 404.739 70.7186 409.216 65.1958 409.216C59.6729 409.216 55.1958 404.739 55.1958 399.216L55.1958 337.312C55.1958 331.789 59.6729 327.312 65.1958 327.312ZM130.481 424.053C136.004 424.053 140.481 428.53 140.481 434.053V495.957C140.481 501.48 136.004 505.957 130.481 505.957C124.958 505.957 120.481 501.48 120.481 495.957V434.053C120.481 428.53 124.958 424.053 130.481 424.053ZM96.6515 327.312C102.174 327.312 106.651 331.789 106.651 337.312L106.651 467.469C106.651 472.992 102.174 477.469 96.6515 477.469C91.1286 477.469 86.6515 472.992 86.6515 467.469L86.6515 337.312C86.6515 331.789 91.1286 327.312 96.6515 327.312Z" fill="#B1BAC0" fill-opacity="0.6"/>
<path fill-rule="evenodd" clip-rule="evenodd" d="M348.4 213.246H244.358V262.003C244.358 267.526 239.88 272.003 234.358 272.003C228.835 272.003 224.358 267.526 224.358 262.003L224.358 213.246H196.463V518.307H229.699L229.699 472.518C229.699 466.995 234.176 462.518 239.699 462.518C245.222 462.518 249.699 466.995 249.699 472.518L249.699 518.307H348.4V508.128C348.4 502.605 352.877 498.128 358.4 498.128C363.923 498.128 368.4 502.605 368.4 508.128V518.307H392.913V213.246H368.4V337.378C368.4 342.901 363.923 347.378 358.4 347.378C352.877 347.378 348.4 342.901 348.4 337.378V213.246ZM261.659 283.873C267.182 283.873 271.659 288.35 271.659 293.873V355.777C271.659 361.3 267.182 365.777 261.659 365.777C256.136 365.777 251.659 361.3 251.659 355.777L251.659 293.873C251.659 288.35 256.136 283.873 261.659 283.873ZM326.944 380.614C332.467 380.614 336.944 385.092 336.944 390.614V452.518C336.944 458.041 332.467 462.518 326.944 462.518C321.421 462.518 316.944 458.041 316.944 452.518V390.614C316.944 385.092 321.421 380.614 326.944 380.614ZM293.114 283.873C298.637 283.873 303.114 288.35 303.114 293.873L303.114 424.03C303.114 429.552 298.637 434.03 293.114 434.03C287.592 434.03 283.114 429.552 283.114 424.03L283.114 293.873C283.114 288.35 287.592 283.873 293.114 283.873Z" fill="#B1BAC0" fill-opacity="0.6"/>
<path fill-rule="evenodd" clip-rule="evenodd" d="M270.407 77.9927H166.365V126.75C166.365 132.272 161.888 136.75 156.365 136.75C150.842 136.75 146.365 132.272 146.365 126.75L146.365 77.9927H118.47V383.053H151.706L151.706 337.264C151.706 331.741 156.183 327.264 161.706 327.264C167.229 327.264 171.706 331.741 171.706 337.264L171.706 383.053H270.407V372.874C270.407 367.351 274.884 362.874 280.407 362.874C285.93 362.874 290.407 367.351 290.407 372.874V383.053H314.92V77.9927H290.407V202.124C290.407 207.647 285.93 212.124 280.407 212.124C274.884 212.124 270.407 207.647 270.407 202.124V77.9927ZM183.666 148.62C189.189 148.62 193.666 153.097 193.666 158.62V220.523C193.666 226.046 189.189 230.523 183.666 230.523C178.143 230.523 173.666 226.046 173.666 220.523L173.666 158.62C173.666 153.097 178.143 148.62 183.666 148.62ZM248.951 245.361C254.474 245.361 258.951 249.838 258.951 255.361V317.264C258.951 322.787 254.474 327.264 248.951 327.264C243.428 327.264 238.951 322.787 238.951 317.264V255.361C238.951 249.838 243.428 245.361 248.951 245.361ZM215.122 148.62C220.644 148.62 225.122 153.097 225.122 158.62L225.122 288.776C225.122 294.299 220.644 298.776 215.122 298.776C209.599 298.776 205.122 294.299 205.122 288.776L205.122 158.62C205.122 153.097 209.599 148.62 215.122 148.62Z" fill="#B1BAC0" fill-opacity="0.6"/>
<path fill-rule="evenodd" clip-rule="evenodd" d="M412.571 311.971H308.529V360.728C308.529 366.251 304.052 370.728 298.529 370.728C293.006 370.728 288.529 366.251 288.529 360.728L288.529 311.971H260.634V617.032H293.871L293.871 571.243C293.871 565.72 298.348 561.243 303.871 561.243C309.393 561.243 313.871 565.72 313.871 571.243L313.871 617.032H412.571V606.853C412.571 601.33 417.048 596.853 422.571 596.853C428.094 596.853 432.571 601.33 432.571 606.853V617.032H457.084V311.971H432.571V436.103C432.571 441.626 428.094 446.103 422.571 446.103C417.048 446.103 412.571 441.626 412.571 436.103V311.971ZM325.83 382.598C331.353 382.598 335.83 387.075 335.83 392.598V454.502C335.83 460.024 331.353 464.502 325.83 464.502C320.307 464.502 315.83 460.024 315.83 454.502L315.83 392.598C315.83 387.075 320.307 382.598 325.83 382.598ZM391.116 479.339C396.638 479.339 401.116 483.816 401.116 489.339V551.243C401.116 556.766 396.638 561.243 391.116 561.243C385.593 561.243 381.116 556.766 381.116 551.243V489.339C381.116 483.816 385.593 479.339 391.116 479.339ZM357.286 382.598C362.809 382.598 367.286 387.075 367.286 392.598L367.286 522.754C367.286 528.277 362.809 532.754 357.286 532.754C351.763 532.754 347.286 528.277 347.286 522.754L347.286 392.598C347.286 387.075 351.763 382.598 357.286 382.598Z" fill="#B1BAC0" fill-opacity="0.6"/>
<path fill-rule="evenodd" clip-rule="evenodd" d="M290.338 0H394.381V48.7569C394.381 54.2797 398.858 58.7569 404.381 58.7569C409.903 58.7569 414.381 54.2797 414.381 48.7569L414.381 0H442.275V305.061H409.039L409.039 259.271C409.039 253.748 404.562 249.271 399.039 249.271C393.516 249.271 389.039 253.748 389.039 259.271L389.039 305.061H290.338V294.881C290.338 289.359 285.861 284.881 280.338 284.881C274.815 284.881 270.338 289.359 270.338 294.881V305.061H245.826V0H270.338V124.132C270.338 129.655 274.815 134.132 280.338 134.132C285.861 134.132 290.338 129.655 290.338 124.132V0ZM377.079 70.627C371.556 70.627 367.079 75.1041 367.079 80.627V142.53C367.079 148.053 371.556 152.53 377.079 152.53C382.602 152.53 387.079 148.053 387.079 142.53L387.079 80.627C387.079 75.1041 382.602 70.627 377.079 70.627ZM311.794 167.368C306.271 167.368 301.794 171.845 301.794 177.368V239.271C301.794 244.794 306.271 249.271 311.794 249.271C317.317 249.271 321.794 244.794 321.794 239.271V177.368C321.794 171.845 317.317 167.368 311.794 167.368ZM345.624 70.627C340.101 70.627 335.624 75.1041 335.624 80.627L335.624 210.783C335.624 216.306 340.101 220.783 345.624 220.783C351.147 220.783 355.624 216.306 355.624 210.783L355.624 80.627C355.624 75.1041 351.146 70.627 345.624 70.627Z" fill="#B1BAC0" fill-opacity="0.6"/>
</svg>
