<svg width="243" height="243" viewBox="0 0 243 243" fill="none" xmlns="http://www.w3.org/2000/svg">
<path fill-rule="evenodd" clip-rule="evenodd" d="M0 0H243V243H0V0Z" fill="white"/>
<path fill-rule="evenodd" clip-rule="evenodd" d="M72.4036 148.16H76.9168V146.944H73.7929V139.653H72.4036V148.16ZM94.1021 143.994C94.0881 142.755 93.5894 141.571 92.7129 140.695C91.8456 140 90.803 139.481 89.5877 139.481C88.3724 139.481 87.1572 140 86.2886 140.695C85.413 141.571 84.9148 142.756 84.9006 143.994C84.9006 145.208 85.4212 146.25 86.2886 147.119C87.1559 147.987 88.3724 148.509 89.5877 148.509C90.803 148.509 91.8443 147.987 92.7129 147.119C93.5815 146.25 94.1021 145.208 94.1021 143.994ZM92.7129 143.994C92.7129 144.862 92.3662 145.555 91.6716 146.25C91.4012 146.528 91.0773 146.748 90.7193 146.897C90.3613 147.047 89.9768 147.122 89.589 147.118C88.7216 147.118 87.853 146.772 87.3324 146.25C86.8117 145.555 86.465 144.86 86.465 143.994C86.465 143.126 86.8117 142.258 87.3324 141.736C87.853 141.042 88.7216 140.695 89.589 140.695C90.4576 140.695 91.1509 141.042 91.6716 141.736C92.3662 142.258 92.7129 143.124 92.7129 143.994ZM103.302 148.16H104.692V142.257C104.866 142.604 105.212 142.952 105.56 143.298L111.115 148.506V139.653H109.726V145.555C109.552 145.208 109.205 144.86 108.858 144.514L103.304 139.306V148.16H103.302ZM120.66 148.16H122.572C124.132 148.16 125.349 148.332 126.39 147.465C127.432 146.596 127.951 145.554 127.951 143.993C127.951 142.43 127.432 141.216 126.39 140.521C125.349 139.653 124.132 139.653 122.572 139.653H120.66V148.16ZM122.05 146.944V140.87H122.573C123.787 140.87 124.828 140.87 125.523 141.39C126.217 142.084 126.564 142.779 126.564 143.994C126.564 145.036 126.217 145.903 125.523 146.425C124.828 147.119 123.787 146.944 122.573 146.944H122.05ZM146.005 143.994C146.005 142.778 145.485 141.564 144.616 140.695C143.747 140 142.707 139.481 141.49 139.481C140.101 139.481 139.06 140 138.194 140.695C137.317 141.571 136.819 142.755 136.805 143.994C136.805 145.208 137.324 146.25 138.194 147.119C139.061 147.987 140.276 148.509 141.49 148.509C142.707 148.509 143.746 147.987 144.616 147.119C145.485 146.25 146.005 145.208 146.005 143.994ZM144.617 143.994C144.617 144.862 144.27 145.555 143.576 146.25C143.056 146.772 142.186 147.118 141.493 147.118C140.626 147.118 139.757 146.772 139.235 146.25C138.543 145.555 138.368 144.86 138.368 143.994C138.368 143.126 138.543 142.258 139.235 141.736C139.757 141.042 140.627 140.695 141.493 140.695C142.188 140.695 143.056 141.042 143.576 141.736C144.269 142.258 144.617 143.124 144.617 143.994ZM155.206 148.16H156.596V142.257C156.768 142.604 157.115 142.952 157.29 143.298L162.845 148.506V139.653H161.628V145.555C161.282 145.208 161.109 144.86 160.761 144.514L155.206 139.306V148.16ZM21.8889 104.068H25.7087V101.291H15.8126V104.068H19.6324V121.947H21.8889V104.068ZM40.4623 121.947H48.4486V118.823H42.7201V112.226H48.4486V109.276H42.7201V104.068H48.4486V101.291H40.4623V121.947ZM64.0719 121.947H67.1958C69.8004 121.947 71.883 121.947 73.7929 119.864C75.3548 118.128 76.2234 115.351 76.2234 111.532C76.2234 107.886 75.3548 105.109 73.7929 103.201C72.057 101.291 69.9731 101.291 67.1958 101.291H64.0719V121.947ZM66.5012 118.823V104.242H67.1946C69.4524 104.242 71.0144 104.242 72.2297 105.631C73.271 107.02 73.7916 108.929 73.7916 111.533C73.7916 114.138 73.271 116.221 72.2297 117.436C71.0144 118.998 69.4524 118.825 67.1946 118.825H66.5012V118.823ZM110.94 121.947H114.585C116.495 121.947 117.885 121.774 118.926 120.385C119.62 119.343 120.14 117.781 120.14 116.045C120.14 113.267 119.099 111.358 117.363 111.01C118.752 110.316 119.445 108.928 119.445 106.671C119.445 104.761 118.925 103.199 118.057 102.332C117.189 101.465 115.975 101.289 114.585 101.289H110.94V121.947ZM113.197 118.997V112.574H114.066C114.933 112.574 115.801 112.4 116.669 112.92C117.364 113.441 117.711 114.482 117.711 115.871C117.711 116.913 117.364 117.954 116.843 118.475C116.323 118.995 115.281 118.995 114.066 118.995H113.197V118.997ZM113.197 109.97V104.068H114.066C116.149 104.068 117.19 104.588 117.19 107.193C117.19 109.276 116.149 109.97 114.066 109.97H113.197ZM144.964 121.947H147.394L140.45 100.422L133.507 121.947H135.937L137.673 116.566H143.228L144.964 121.947ZM138.542 113.789L139.931 109.102C140.104 108.581 140.278 107.886 140.45 106.845C140.626 107.886 140.797 108.581 140.97 109.102L142.533 113.789H138.542ZM161.628 121.947H164.059V111.358L169.613 121.947H172.737L166.317 110.491L172.044 101.291H169.094L164.059 109.796V101.291H161.628V121.947ZM186.971 121.947H195.132V118.823H189.402V112.226H195.132V109.276H189.402V104.068H195.132V101.291H186.971V121.947ZM212.838 112.747H213.184L217.873 121.948H220.65L215.615 112.575C217.873 112.227 218.911 110.318 218.911 107.02C218.911 105.11 218.392 103.374 217.522 102.507C216.655 101.466 215.44 101.292 213.878 101.292H210.752V121.949H212.835V112.747H212.838ZM213.01 110.144V104.242H213.532C215.615 104.242 216.482 104.762 216.482 107.193C216.482 109.796 215.441 110.144 213.532 110.144H213.01ZM228.632 95.7349C226.55 95.7349 224.816 97.2981 224.816 99.3807C224.816 101.291 226.55 103.027 228.632 103.027C230.543 103.027 232.279 101.291 232.279 99.3807C232.279 97.2981 230.543 95.7349 228.632 95.7349ZM228.461 96.2568H228.634C230.197 96.2568 231.413 97.646 231.413 99.3807C231.413 101.117 230.197 102.332 228.634 102.332C226.9 102.332 225.684 101.117 225.684 99.3807C225.684 97.646 226.725 96.4307 228.461 96.2568ZM227.072 97.2981V101.465H227.766V99.5547H228.461L229.675 101.465H230.37L229.156 99.5547C229.85 99.5547 230.197 99.034 230.197 98.3394C230.197 97.6448 229.675 97.2981 228.808 97.2981H227.072ZM227.766 99.034V97.8187H228.634C229.331 97.8187 229.502 97.9927 229.502 98.5134C229.502 98.86 229.329 99.0353 228.808 99.0353H227.766V99.034Z" fill="black"/>
</svg>
