<svg width="295" height="59" viewBox="0 0 295 59" fill="none" xmlns="http://www.w3.org/2000/svg">
                <path fillRule="evenodd" clipRule="evenodd" d="M203.331 26.0361C203.341 26.3121 203.35 26.5882 203.359 26.8639C203.426 27.0166 203.332 27.1937 203.428 27.3418C203.478 28.6031 203.863 29.7792 204.358 30.9137C205.476 33.4783 207.25 35.4527 209.695 36.7384C211.039 37.4452 212.478 37.9098 214.024 37.8941C214.441 37.9612 214.857 37.9612 215.273 37.8941C216.557 37.896 217.755 37.5261 218.919 37.0113C220.444 36.3359 221.769 35.3609 222.875 34.1027C223.857 32.9847 224.61 31.7159 225.153 30.3066C225.498 29.4132 225.683 28.4888 225.852 27.5609C225.93 27.1301 226.024 26.6777 225.965 26.2246C226.025 25.8983 226.038 25.5723 225.962 25.2468C225.954 25.0292 225.946 24.8113 225.939 24.5938C225.87 24.443 225.968 24.2662 225.868 24.121C225.563 21.7201 224.609 19.6039 223.159 17.7084C222.749 17.1723 222.725 17.159 223.209 16.72C224.078 15.9299 224.856 15.0412 225.733 14.2657C226.244 13.8137 226.707 13.3209 227.176 12.8324C227.421 12.5775 227.54 12.6737 227.711 12.8763C229.117 14.5417 230.231 16.3874 231.035 18.4293C231.65 19.9934 232.011 21.6235 232.258 23.2833C232.321 23.4345 232.227 23.6097 232.326 23.7554C232.334 23.9439 232.342 24.1319 232.35 24.3204C232.384 25.1969 232.394 26.0738 232.345 26.9503C232.338 27.1364 232.331 27.3225 232.324 27.5087C232.228 27.6567 232.323 27.8338 232.255 27.9866C231.931 30.2606 231.333 32.451 230.282 34.493C228.373 38.1984 225.601 40.99 221.878 42.7948C220.234 43.5916 218.507 44.0487 216.721 44.3177C216.573 44.3825 216.402 44.2859 216.258 44.3872C216.075 44.3938 215.891 44.4005 215.707 44.4068C215.001 44.4531 214.296 44.4531 213.591 44.4068C213.406 44.4005 213.223 44.3938 213.039 44.3872C212.896 44.2847 212.723 44.3848 212.575 44.3149C209.331 43.9556 206.449 42.675 203.893 40.6421C202.096 39.2131 200.649 37.4523 199.482 35.4508C198.501 33.7697 197.866 31.9472 197.36 30.0772C197.177 29.4026 197.145 28.6852 197.044 27.987C196.974 27.8326 197.066 27.654 196.975 27.5024C196.964 27.2864 196.954 27.07 196.944 26.8537C196.917 26.0086 196.901 25.1635 196.952 24.3189C196.959 24.1327 196.966 23.9466 196.973 23.7605C197.069 23.6124 196.975 23.4353 197.042 23.283C197.282 20.7199 198.113 18.3414 199.299 16.0968C199.936 14.8916 200.753 13.7933 201.635 12.7526C201.79 12.57 201.867 12.6937 201.964 12.7845C202.314 13.1116 202.666 13.4375 203.007 13.7732C204.07 14.8154 205.114 15.8773 206.197 16.8971C206.49 17.1727 206.458 17.3432 206.233 17.6031C204.872 19.1782 204.028 21.0175 203.574 23.0544C203.49 23.433 203.394 23.8099 203.426 24.2038C203.334 24.3554 203.426 24.5341 203.356 24.6884C203.349 24.9374 203.343 25.1863 203.336 25.4353C203.261 25.6352 203.274 25.8354 203.331 26.0361ZM230.112 0C229.526 0.638903 228.945 1.28448 228.35 1.91632C227.19 3.14896 226.015 4.36669 224.858 5.60326C222.972 7.61932 221.095 9.64519 219.214 11.6667C219.144 11.7539 219.047 11.7311 218.958 11.7311C217.12 11.7319 215.281 11.7323 213.443 11.7319C213.366 11.7319 213.29 11.7339 213.224 11.6828C213.793 10.817 214.353 9.94521 214.932 9.08601C216.041 7.43829 217.158 5.79607 218.276 4.15463C219.155 2.86309 220.04 1.57586 220.921 0.285091C220.98 0.197915 221.017 0.0954231 221.065 0H230.112Z" fill="#FF8300" />
                <path fillRule="evenodd" clipRule="evenodd" d="M259.537 25.4013C259.549 24.9643 259.562 24.527 259.575 24.09C259.67 23.9047 259.575 23.6978 259.64 23.5098C259.747 21.802 260.141 20.1535 260.708 18.5522C261.445 16.4743 262.505 14.5863 263.879 12.854C265.534 10.7674 267.535 9.16061 269.889 7.99438C271.482 7.20496 273.17 6.70975 274.937 6.51151C275.181 6.48398 275.424 6.43875 275.667 6.40138C275.95 6.31878 276.247 6.43481 276.529 6.33294C276.888 6.33137 277.248 6.32979 277.607 6.32861C277.881 6.43678 278.174 6.3235 278.451 6.39627C281.729 6.72588 284.681 7.90077 287.296 9.93155C289.228 11.4325 290.778 13.2776 291.995 15.4126C293.084 17.3239 293.819 19.3723 294.243 21.5325C294.395 22.3086 294.463 23.1015 294.57 23.8866C294.652 24.1977 294.526 24.5246 294.642 24.8334C294.641 25.268 294.64 25.7026 294.64 26.1373C294.53 26.448 294.651 26.7768 294.568 27.0895C294.562 27.2457 294.555 27.4018 294.548 27.558C294.448 27.7043 294.546 27.8817 294.477 28.0327C294.122 30.4773 293.446 32.8173 292.281 34.9991C290.794 37.7831 288.778 40.0727 286.164 41.8179C284.208 43.1245 282.084 43.982 279.773 44.3651C279.518 44.4072 279.263 44.4465 279.008 44.4874C278.858 44.5468 278.687 44.454 278.542 44.5543C278.326 44.5626 278.109 44.5708 277.893 44.5791C277.337 44.6145 276.781 44.6235 276.226 44.574C276.013 44.5661 275.801 44.5583 275.589 44.5504C275.438 44.4587 275.263 44.5488 275.11 44.4819C272.874 44.2396 270.789 43.5328 268.85 42.3808C268.798 41.2185 268.835 40.0558 268.829 38.8931C268.822 37.3839 268.826 35.8746 268.83 34.3654C268.831 34.2128 268.782 34.0504 268.881 33.9076C270.608 36.0139 272.747 37.4287 275.429 37.9329C275.594 37.964 275.768 37.9459 275.937 37.9506C276.114 38.0584 276.317 37.9483 276.498 38.023C276.904 38.021 277.31 38.0195 277.716 38.0175C277.871 37.962 278.043 38.0439 278.194 37.9546C279.843 37.8374 281.314 37.2041 282.655 36.2727C284.744 34.8229 286.241 32.9022 287.136 30.4726C287.554 29.3406 287.79 28.1905 287.949 27.0093C288.054 26.7953 287.942 26.5581 288.018 26.341V25.0119C287.942 24.7948 288.054 24.5576 287.949 24.3437C287.687 21.8016 286.837 19.5025 285.245 17.4969C284.241 16.2312 283.047 15.1959 281.63 14.4533C280.71 13.9707 279.747 13.5648 278.687 13.4892C278.524 13.4778 278.381 13.3406 278.203 13.396C278.048 13.3122 277.872 13.3937 277.715 13.3299C277.278 13.3319 276.841 13.3335 276.404 13.3355C276.251 13.3933 276.08 13.3052 275.932 13.4007C274.557 13.494 273.287 13.9589 272.11 14.6417C269.952 15.8941 268.373 17.7133 267.339 20.0021C266.77 21.2592 266.327 22.5623 266.264 23.9661C266.166 24.1148 266.264 24.2937 266.192 24.4463C266.185 24.6638 266.178 24.8814 266.171 25.0989C266.097 25.2224 266.155 25.4033 266.006 25.495L265.996 25.5048C265.887 25.6794 265.943 25.873 265.943 26.0566C265.94 36.854 265.941 47.6514 265.938 58.4492C265.938 58.6309 265.999 58.8256 265.879 58.9971H259.585C259.484 58.8913 259.526 58.7584 259.526 58.6376C259.524 47.6215 259.524 36.6054 259.524 25.5894C259.524 25.526 259.527 25.4635 259.537 25.4013Z" fill="#545454" />
                <path fillRule="evenodd" clipRule="evenodd" d="M245.056 7.82446V13.081C245.614 12.1842 246.328 11.5647 246.968 10.8744C247.68 10.107 248.519 9.50871 249.404 8.98282C251.265 7.87677 253.298 7.24193 255.403 6.82342C255.707 6.76285 255.844 6.80572 255.841 7.17742C255.824 9.28215 255.834 11.3869 255.83 13.4916C255.83 13.6336 255.902 13.8216 255.673 13.8727C255.171 13.8019 254.669 13.7956 254.167 13.8747C253.028 13.9345 251.985 14.3333 251.006 14.8801C248.624 16.2091 246.862 18.2356 245.157 20.3211C245.027 20.4804 245.058 20.642 245.058 20.8068C245.055 28.6326 245.056 36.4583 245.056 44.2841C244.612 44.3632 244.165 44.3144 243.72 44.3163C242.177 44.3238 240.635 44.3203 239.093 44.3179C238.94 44.3175 238.784 44.3474 238.635 44.2841V7.82446C239.079 7.74579 239.526 7.79456 239.972 7.7922C241.514 7.78473 243.057 7.78827 244.599 7.79102C244.751 7.79102 244.908 7.76113 245.056 7.82446Z" fill="#545454" />
                <path fillRule="evenodd" clipRule="evenodd" d="M168.675 26.1427C168.676 25.6789 168.677 25.2148 168.679 24.7511C168.779 24.5017 168.676 24.235 168.741 23.9829C168.802 22.146 169.286 20.3925 169.91 18.6949C170.654 16.6692 171.75 14.8343 173.141 13.1749C174.825 11.1645 176.792 9.55267 179.167 8.46313C180.57 7.82003 182.043 7.45148 183.562 7.24891C183.747 7.17733 183.952 7.27841 184.135 7.18087C186.292 7.18047 188.45 7.18008 190.607 7.17969C190.728 7.29651 190.671 7.44676 190.671 7.58089C190.676 9.54047 190.665 11.5005 190.683 13.46C190.686 13.829 190.591 13.936 190.222 13.9316C188.538 13.9116 186.854 13.9214 185.17 13.925C185.002 13.9254 184.829 13.8817 184.669 13.969C182.963 14.0941 181.422 14.6904 180.045 15.6985C177.543 17.5291 176.143 20.0775 175.488 23.0841C175.407 23.4578 175.309 23.8464 175.366 24.2429C175.278 24.3959 175.358 24.5705 175.304 24.7279C175.244 25.3607 175.244 25.9932 175.304 26.6261C175.355 26.7866 175.283 26.9628 175.363 27.1201C175.514 29.4129 176.311 31.4704 177.64 33.3072C179.158 35.4045 181.166 36.7741 183.694 37.3275C183.895 37.3712 184.088 37.3779 184.285 37.3885C184.495 37.4754 184.713 37.4278 184.927 37.4286C186.692 37.4333 188.456 37.442 190.221 37.4227C190.588 37.4184 190.687 37.5218 190.683 37.8935C190.664 39.778 190.674 41.6628 190.675 43.5473C190.675 43.7526 190.713 43.9501 190.388 43.9469C188.175 43.9245 185.963 43.9678 183.75 43.9217C181.927 43.8309 180.216 43.29 178.611 42.4578C177.16 41.7053 175.864 40.7204 174.676 39.5569C172.992 37.9069 171.627 36.0374 170.62 33.9138C169.835 32.2578 169.228 30.5264 168.955 28.6895C168.871 28.1251 168.786 27.5634 168.746 26.995C168.667 26.7158 168.788 26.4192 168.675 26.1427Z" fill="#545454" />
                <path fillRule="evenodd" clipRule="evenodd" d="M141.068 7.84348C147.316 7.8423 153.564 7.84151 159.813 7.84033C159.916 7.92451 159.878 8.04251 159.878 8.14713C159.88 10.1236 159.88 12.1001 159.879 14.0766C159.879 14.1695 159.895 14.2666 159.83 14.3476C153.806 14.348 147.781 14.3347 141.757 14.3583C140.325 14.3642 139.199 15.0686 138.778 16.3387C138.727 16.4929 138.703 16.6392 138.713 16.7969C138.633 16.996 138.653 17.1962 138.708 17.3968C138.652 18.5307 139.544 19.5849 140.488 19.9338C143.887 21.1905 147.288 22.442 150.69 23.6901C152.628 24.4008 154.62 24.9857 156.499 25.8314C159.364 27.1207 161.336 29.2447 161.793 32.544C161.816 32.7128 161.866 32.8776 161.904 33.044C161.969 33.2324 161.873 33.4393 161.969 33.6241C161.969 34.0548 161.97 34.4855 161.971 34.9166C161.868 35.0979 161.976 35.3064 161.899 35.4913C161.639 37.1091 161.1 38.6108 160.145 39.9501C158.637 42.0678 156.589 43.2997 154.083 43.789C153.799 43.8445 153.511 43.8756 153.225 43.9184C152.981 43.9924 152.719 43.8756 152.479 43.9881C150.434 43.9837 148.39 43.9751 146.346 43.9759C142.226 43.977 138.107 43.9833 133.987 43.9873C133.879 43.8653 133.929 43.7167 133.928 43.581C133.925 41.68 133.938 39.7786 133.916 37.8776C133.911 37.4804 134.053 37.4237 134.394 37.4245C140.34 37.4335 146.286 37.4312 152.233 37.4284C152.415 37.4284 152.604 37.4713 152.782 37.3883C154.215 37.3604 155.476 36.4648 155.936 35.1471C155.997 34.8132 156.001 34.4792 155.936 34.1453C155.812 32.6188 154.736 32.0697 153.502 31.613C151.781 30.9766 150.088 30.2615 148.382 29.5842C146.521 28.8459 144.66 28.1096 142.797 27.3776C141.074 26.7003 139.325 26.0835 137.63 25.3397C136.21 24.7167 135.113 23.648 134.224 22.3602C133.396 21.1614 132.985 19.7973 132.682 18.3939C132.611 18.0635 132.653 17.7079 132.644 17.3641C132.615 17.1462 132.603 16.9287 132.651 16.7116C132.651 15.2822 133.034 13.9417 133.696 12.7031C135.054 10.1653 137.144 8.59396 139.949 8.02795C140.158 7.98547 140.369 7.94889 140.58 7.90956C140.737 7.84584 140.914 7.92726 141.068 7.84348Z" fill="#545454" />
                <path fillRule="evenodd" clipRule="evenodd" d="M111.746 6.98845C113.717 6.90074 115.641 7.15326 117.5 7.83569C120.481 8.93073 122.995 10.6763 124.826 13.3443C125.852 14.839 126.423 16.5134 126.64 18.3165C126.687 18.4702 126.665 18.6288 126.665 18.7849C126.666 27.1173 126.666 35.4493 126.666 43.7812C126.666 44.3174 126.665 44.3181 126.146 44.3181C124.349 44.3185 122.552 44.3185 120.755 44.3181C120.251 44.3181 120.25 44.3174 120.25 43.8127C120.249 35.7163 120.25 27.62 120.247 19.524C120.247 19.3383 120.292 19.1464 120.204 18.967C119.755 16.8422 118.344 15.5214 116.563 14.529C115.557 13.9685 114.483 13.5929 113.328 13.4946C112.855 13.4214 112.383 13.4214 111.91 13.4946C109.489 13.6775 107.265 14.334 105.601 16.2743C104.923 17.066 104.498 17.9825 104.475 19.0567C104.389 19.2365 104.433 19.4284 104.433 19.6141C104.43 27.6636 104.431 35.7132 104.43 43.7632C104.43 44.3862 104.478 44.3174 103.881 44.3178C102.068 44.3193 100.255 44.313 98.4426 44.3237C98.1468 44.3256 98.0057 44.2855 98.0061 43.9248C98.0162 35.4976 98.0138 27.0709 98.0138 18.6437C98.0138 18.565 98.0131 18.4864 98.0394 18.4109C98.0685 17.1726 98.4503 16.0143 98.9655 14.9251C99.4086 13.9874 100.026 13.1453 100.722 12.3539C101.539 11.4253 102.455 10.6366 103.466 9.95891C105.652 8.49413 108.044 7.55761 110.64 7.17214C110.853 7.14067 111.063 7.09504 111.274 7.0565C111.426 6.99317 111.599 7.08521 111.746 6.98845Z" fill="#545454" />
                <path fillRule="evenodd" clipRule="evenodd" d="M74.4238 6.39627C77.7874 6.73296 80.8064 7.95544 83.4533 10.0838C86.1005 12.2125 87.9775 14.9237 89.223 18.1007C89.977 20.0237 90.3468 22.0301 90.5484 24.077C90.6197 24.5128 90.4988 24.9585 90.6166 25.3915C90.6166 31.6892 90.617 37.9864 90.617 44.2841C90.2042 44.3588 89.7875 44.3148 89.3731 44.3164C87.8151 44.323 86.2572 44.3203 84.6996 44.3175C84.5317 44.3171 84.36 44.3502 84.1956 44.2841C84.196 38.1749 84.191 32.066 84.2111 25.9567C84.2123 25.6287 83.9479 25.4183 83.9933 25.1071C83.9111 24.8597 84.0309 24.5927 83.92 24.3488C83.694 22.0136 82.9416 19.877 81.5802 17.9705C80.5207 16.4864 79.2039 15.2872 77.5986 14.4553C76.6803 13.9789 75.7217 13.5545 74.6595 13.4889C74.4967 13.479 74.3537 13.3406 74.1757 13.396C74.0211 13.3122 73.8447 13.3937 73.6873 13.3299C73.2504 13.3319 72.8131 13.3335 72.3763 13.3355C72.2239 13.3933 72.0522 13.3048 71.9049 13.4007C70.409 13.5235 69.0262 14.0187 67.7726 14.8293C64.5659 16.9022 62.8068 19.9238 62.2211 23.7002C62.1629 24.0742 62.1466 24.442 62.1435 24.8157C62.0722 25.3895 62.0722 25.9634 62.1435 26.5373C62.2114 29.0424 63.0192 31.3033 64.4365 33.3262C66.1541 35.7779 68.4544 37.3724 71.4013 37.933C71.5661 37.964 71.7401 37.9459 71.9099 37.9506C72.0863 38.0584 72.2902 37.9483 72.4708 38.023C72.8767 38.0211 73.283 38.0191 73.6888 38.0175C73.8435 37.9617 74.016 38.0439 74.1664 37.9546C75.7038 37.8433 77.0815 37.2678 78.3689 36.4465C79.4326 35.768 80.3622 34.9298 81.1507 33.9335C81.1631 33.9178 81.2069 33.9272 81.2453 33.9241C81.346 34.0437 81.2949 34.19 81.2949 34.3218C81.2987 36.8666 81.2902 39.4115 81.3073 41.956C81.3092 42.2789 81.1797 42.428 80.9324 42.5633C79.3295 43.4416 77.6324 44.0406 75.8376 44.3553C75.5534 44.4053 75.2666 44.4438 74.9813 44.4875C74.8309 44.5469 74.6595 44.454 74.5149 44.5543C74.2986 44.5618 74.0823 44.5689 73.8664 44.5764C73.3101 44.6177 72.7542 44.6224 72.1983 44.574L71.5618 44.5504C71.4114 44.4587 71.2358 44.5488 71.0823 44.482C68.8374 44.2621 66.7596 43.5096 64.8094 42.3941C63.5844 41.6932 62.4719 40.8369 61.4539 39.8331C60.1716 38.5694 59.047 37.1919 58.1581 35.626C57.6375 34.7088 57.1917 33.751 56.8165 32.7579C56.4125 31.6876 56.1121 30.5926 55.8834 29.4739C55.7481 28.8112 55.6489 28.1429 55.6128 27.4656C55.5458 27.2799 55.6465 27.0742 55.5458 26.8925L55.5438 24.0778C55.6551 23.8666 55.5357 23.629 55.6175 23.4142C55.7466 21.7937 56.0827 20.2152 56.6223 18.6879C57.3061 16.7531 58.2608 14.9741 59.4885 13.3217C61.2399 10.964 63.4111 9.16966 66.0278 7.91217C67.8055 7.05785 69.6933 6.61417 71.6401 6.40138C71.9223 6.31878 72.22 6.43481 72.5015 6.33294C72.8608 6.33137 73.2202 6.32979 73.5795 6.32861C73.8544 6.43678 74.1463 6.32311 74.4238 6.39627Z" fill="#545454" />
                <path fillRule="evenodd" clipRule="evenodd" d="M34.7976 44.2571C34.8018 44.1316 34.8092 44.0061 34.8092 43.8803C34.81 31.9961 34.81 20.1119 34.8092 8.22775C34.8092 8.10228 34.8018 7.9768 34.7976 7.85094C34.8701 7.76873 34.9678 7.78997 35.0577 7.78997C37.0506 7.78918 39.0427 7.78879 41.0352 7.78918C41.098 7.78918 41.1581 7.79823 41.2155 7.82419V13.0681C41.7869 12.2653 42.4032 11.6175 43.0239 10.9701C43.8557 10.1028 44.8159 9.43332 45.8448 8.84214C47.6396 7.81082 49.5848 7.22947 51.5924 6.82355C51.8886 6.76376 52.001 6.82001 51.9991 7.16103C51.9843 9.26812 51.9925 11.3752 51.989 13.4819C51.9886 13.6243 52.0626 13.8115 51.8382 13.8705C51.3583 13.7981 50.878 13.8036 50.3981 13.8681C49.0436 13.9271 47.8373 14.4554 46.7081 15.1524C44.9101 16.2616 43.5061 17.8164 42.0873 19.3709C41.3422 20.1874 41.1934 21.0335 41.1976 22.0723C41.229 29.476 41.2151 36.8801 41.2155 44.2838C40.7863 44.3601 40.3537 44.3145 39.9231 44.3165C38.3632 44.3232 36.8033 44.3208 35.2434 44.3161C35.0949 44.3157 34.9336 44.3723 34.7976 44.2571Z" fill="#545454" />
                <path fillRule="evenodd" clipRule="evenodd" d="M18.8893 44.2909C14.7062 44.0231 11.1383 40.3588 10.8681 36.1517C10.8138 35.9664 10.8413 35.7764 10.8413 35.5888C10.8398 28.6355 10.8405 21.6825 10.8371 14.7288C10.8371 14.5455 10.894 14.3516 10.7847 14.1769L10.775 14.1671C10.6196 14.0597 10.4448 14.114 10.28 14.114C7.01988 14.1101 3.76015 14.1116 0.500423 14.1089C0.333734 14.1089 0.160456 14.1521 -3.05176e-05 14.0652V7.55161C0.239536 7.34905 0.529109 7.40136 0.803176 7.40097C3.74736 7.39743 6.69193 7.399 9.63612 7.399C9.77567 7.399 9.91522 7.40057 10.0548 7.39782C10.6002 7.38681 10.6378 7.35652 10.6394 6.80625C10.6444 4.82503 10.6362 2.84341 10.6467 0.862193C10.6483 0.581353 10.549 0.250953 10.8723 0.0534998C12.9594 0.0413065 15.0461 0.0515332 17.1332 0.0487798C17.2251 0.0487798 17.3193 0.0377665 17.4057 0.0845732C17.4778 0.26708 17.441 0.457846 17.441 0.644287C17.443 11.8948 17.4426 23.1457 17.4445 34.3966C17.4449 34.5823 17.4054 34.7734 17.4825 34.9551C17.4666 36.1477 18.7206 37.4453 19.8917 37.4823C20.0542 37.5633 20.2278 37.5228 20.3953 37.5228C23.3868 37.526 26.3782 37.5236 29.3701 37.5287C29.5325 37.5291 29.7112 37.4599 29.8593 37.5932C29.8601 39.8148 29.8609 42.0359 29.8616 44.2571C29.7736 44.3503 29.6589 44.3177 29.5546 44.3177C26.0759 44.3192 22.5967 44.3192 19.1176 44.3192C19.0405 44.3192 18.9629 44.32 18.8893 44.2909Z" fill="#545454" />
              </svg>